<?xml version="1.0" encoding="UTF-8" standalone="no"?>
<svg
   height="85.756454"
   id="Layer_1"
   version="1.1"
   viewBox="0 0 85.756454 85.756454"
   width="85.756454"
   xml:space="preserve"
   sodipodi:docname="seguridad.svg"
   inkscape:version="1.3 (0e150ed6c4, 2023-07-21)"
   xmlns:inkscape="http://www.inkscape.org/namespaces/inkscape"
   xmlns:sodipodi="http://sodipodi.sourceforge.net/DTD/sodipodi-0.dtd"
   xmlns="http://www.w3.org/2000/svg"
   xmlns:svg="http://www.w3.org/2000/svg"><defs
     id="defs20" /><sodipodi:namedview
     id="namedview20"
     pagecolor="#ffffff"
     bordercolor="#000000"
     borderopacity="0.25"
     inkscape:showpageshadow="2"
     inkscape:pageopacity="0.0"
     inkscape:pagecheckerboard="0"
     inkscape:deskcolor="#d1d1d1"
     inkscape:zoom="6.775"
     inkscape:cx="45.092251"
     inkscape:cy="40.95941"
     inkscape:window-width="1920"
     inkscape:window-height="1009"
     inkscape:window-x="1912"
     inkscape:window-y="-8"
     inkscape:window-maximized="1"
     inkscape:current-layer="Layer_1" /><circle
     style="opacity:0.494526;fill:#000ea7;fill-opacity:1"
     id="path21"
     cx="42.878227"
     cy="42.878227"
     r="42.878227" /><g
     id="Stand_1_"
     transform="translate(11.209332,6.8708459)"><g
       id="g1"><rect
         height="8"
         style="fill:#b3b3b3"
         width="32"
         x="16.000999"
         y="44"
         id="rect1" /></g></g><g
     id="Leg"
     transform="translate(11.209331,12.719555)"><g
       id="g2"><path
         d="m 8.001,56 c 0,2.209 1.791,4 4,4 2.209,0 4,-1.791 4,-4 V 6 h -8 z m 40,-50 v 50 c 0,2.209 1.79,4 4,4 2.209,0 4,-1.791 4,-4 V 6 Z"
         style="fill:#cccccc"
         id="path1" /></g></g><g
     id="g21"
     transform="translate(-6.346865,17.365311)"><g
       id="Bar"
       transform="translate(17.556696,-8.6768468)"><g
         id="g3"><path
           d="M 60.445,15.999 H 3.556 C 1.592,15.999 0,17.609 0,19.596 v 8.789 c 0,1.986 1.592,3.597 3.556,3.597 h 56.89 c 1.963,0 3.555,-1.61 3.555,-3.597 V 19.596 C 64,17.609 62.408,15.999 60.445,15.999 Z"
           style="fill:#e6e6e6"
           id="path2" /></g></g><g
       id="Stripes_1_"
       transform="translate(17.556696,-8.6863468)"><g
         id="g4"><path
           d="m 10.001,16 -10,10 v 2.395 c 0.005,1.981 1.594,3.587 3.555,3.587 H 6.02 L 22.001,16 Z m 50.454,0 H 58.001 L 42.02,31.981 h 12 L 64,22.001 V 19.596 C 64,17.612 62.413,16.006 60.455,16 Z m -26.454,0 -16,16 h 12 l 16,-16 z"
           style="clip-rule:evenodd;fill:#ff8833;fill-rule:evenodd"
           id="path3" /></g></g></g><g
     id="Lights"
     transform="translate(11.209331,9.6457539)"><g
       id="g5"><path
         d="m 12.001,0 c -3.313,0 -6,2.686 -6,6 0,3.313 2.687,6 6,6 3.313,0 6,-2.687 6,-6 0,-3.314 -2.687,-6 -6,-6 z m 40,0 c -3.313,0 -6,2.686 -6,6 0,3.313 2.687,6 6,6 3.313,0 6,-2.687 6,-6 0,-3.314 -2.687,-6 -6,-6 z"
         style="clip-rule:evenodd;fill:#ffcc66;fill-rule:evenodd"
         id="path4" /></g></g><g
     id="g6"
     transform="translate(-6.789669,-4.2804451)" /><g
     id="g7"
     transform="translate(-6.789669,-4.2804451)" /><g
     id="g8"
     transform="translate(-6.789669,-4.2804451)" /><g
     id="g9"
     transform="translate(-6.789669,-4.2804451)" /><g
     id="g10"
     transform="translate(-6.789669,-4.2804451)" /><g
     id="g11"
     transform="translate(-6.789669,-4.2804451)" /><g
     id="g12"
     transform="translate(-6.789669,-4.2804451)" /><g
     id="g13"
     transform="translate(-6.789669,-4.2804451)" /><g
     id="g14"
     transform="translate(-6.789669,-4.2804451)" /><g
     id="g15"
     transform="translate(-6.789669,-4.2804451)" /><g
     id="g16"
     transform="translate(-6.789669,-4.2804451)" /><g
     id="g17"
     transform="translate(-6.789669,-4.2804451)" /><g
     id="g18"
     transform="translate(-6.789669,-4.2804451)" /><g
     id="g19"
     transform="translate(-6.789669,-4.2804451)" /><g
     id="g20"
     transform="translate(-6.789669,-4.2804451)" /></svg>
